<?xml version="1.0" standalone="no"?>
<!DOCTYPE svg PUBLIC "-//W3C//DTD SVG 20010904//EN"
 "http://www.w3.org/TR/2001/REC-SVG-20010904/DTD/svg10.dtd">
<svg version="1.0" xmlns="http://www.w3.org/2000/svg"
 width="512.000000pt" height="512.000000pt" viewBox="0 0 512.000000 512.000000"
 preserveAspectRatio="xMidYMid meet">

<g transform="translate(0.000000,512.000000) scale(0.100000,-0.100000)"
fill="#000000" stroke="none">
<path d="M2452 4154 c-16 -11 -22 -25 -22 -52 -1 -69 114 -944 122 -925 14 37
119 916 113 945 -9 37 -36 48 -123 48 -45 0 -75 -5 -90 -16z"/>
<path d="M2988 3863 c-12 -15 -59 -124 -263 -615 -8 -21 -13 -38 -11 -38 6 0
410 530 424 557 18 33 5 51 -59 83 -68 35 -71 35 -91 13z"/>
<path d="M2007 3790 c-36 -23 -47 -35 -47 -56 0 -18 62 -107 212 -304 117
-154 213 -278 215 -276 6 6 -259 630 -275 649 -22 25 -51 21 -105 -13z"/>
<path d="M3348 3624 c-25 -8 -68 -31 -96 -52 -58 -44 -712 -800 -712 -823 0
-13 132 -294 144 -306 1 -1 24 9 51 22 51 26 123 33 168 16 70 -27 136 -120
137 -191 0 -97 -67 -189 -154 -211 l-43 -11 8 -41 c4 -23 8 -88 9 -144 l0
-102 53 -15 c28 -8 392 -105 807 -216 415 -111 756 -203 758 -205 2 -2 -10
-51 -27 -109 -32 -112 -31 -145 6 -164 30 -17 328 -92 361 -92 22 0 36 7 46
23 23 36 248 895 253 967 4 53 -14 163 -97 600 -56 294 -110 554 -120 577 -25
56 -108 143 -162 170 -24 12 -307 89 -629 172 -626 161 -658 167 -761 135z
m710 -423 c260 -72 493 -139 516 -150 48 -21 87 -67 105 -122 15 -47 140 -713
135 -718 -3 -4 -346 88 -1906 507 -10 2 -18 7 -18 11 0 3 110 132 243 285 276
319 291 332 392 322 33 -3 273 -64 533 -135z m667 -1220 c157 -71 168 -290 18
-378 -104 -61 -228 -23 -286 87 -26 49 -28 62 -23 114 10 94 60 164 135 186
45 14 115 10 156 -9z"/>
<path d="M689 3194 c-59 -18 -134 -69 -170 -114 -27 -34 -459 -928 -496 -1026
-16 -45 -18 -92 -21 -544 -2 -272 -1 -505 2 -516 10 -39 50 -45 250 -42 172 3
189 5 202 22 10 15 14 52 14 138 l0 118 909 0 909 0 4 -121 c4 -168 -7 -161
244 -157 170 3 196 5 211 21 17 17 18 51 18 515 l0 497 -26 70 c-14 39 -124
277 -245 530 -200 420 -224 465 -271 513 -30 30 -78 65 -110 80 l-58 27 -660
2 c-550 2 -668 -1 -706 -13z m1286 -289 c22 -11 55 -40 73 -65 26 -35 322
-648 322 -666 0 -2 -445 -4 -990 -4 -545 0 -990 3 -990 7 0 12 291 615 316
655 13 21 35 45 49 54 66 43 74 44 640 41 517 -2 542 -3 580 -22z m-1438 -998
c156 -81 155 -299 -2 -380 -127 -65 -286 23 -302 166 -11 93 47 191 132 223
47 17 129 13 172 -9z m1856 7 c57 -19 123 -90 133 -141 27 -143 -67 -265 -205
-267 -188 -2 -283 231 -147 363 60 58 136 74 219 45z"/>
</g>
</svg>
