<?xml version="1.0" standalone="no"?>
<!DOCTYPE svg PUBLIC "-//W3C//DTD SVG 20010904//EN"
 "http://www.w3.org/TR/2001/REC-SVG-20010904/DTD/svg10.dtd">
<svg version="1.0" xmlns="http://www.w3.org/2000/svg"
 width="512.000000pt" height="512.000000pt" viewBox="0 0 512.000000 512.000000"
 preserveAspectRatio="xMidYMid meet">

<g transform="translate(0.000000,512.000000) scale(0.100000,-0.100000)"
fill="#000000" stroke="none">
<path d="M1 3543 c0 -1524 1 -1576 18 -1513 27 99 467 1013 514 1066 23 26 65
57 105 76 l67 33 675 0 675 0 58 -27 c32 -15 80 -50 110 -80 47 -48 71 -93
271 -513 121 -253 231 -491 245 -530 l26 -70 0 -498 0 -499 -24 -19 c-21 -17
-41 -19 -213 -19 -187 0 -189 0 -213 25 -24 23 -25 30 -25 140 l0 115 -910 0
-910 0 0 -120 c0 -169 13 -160 -235 -160 -182 0 -196 1 -215 20 l-20 20 0
-495 0 -495 2560 0 2560 0 -1 968 c-1 532 -3 958 -6 947 -35 -152 -238 -896
-249 -912 -10 -16 -24 -23 -46 -23 -33 0 -331 75 -361 92 -37 19 -38 52 -6
164 17 58 29 107 27 109 -2 2 -359 99 -793 215 -435 116 -798 213 -807 216
-16 5 -18 19 -18 107 -1 56 -4 120 -9 143 l-8 41 45 12 c87 23 152 114 152
211 -1 71 -67 164 -137 191 -45 17 -117 10 -168 -16 -27 -13 -50 -23 -52 -21
-11 11 -143 293 -143 305 0 20 659 787 707 823 20 15 60 37 90 48 104 39 131
34 772 -130 322 -83 605 -160 628 -171 54 -26 146 -126 167 -181 9 -24 61
-277 116 -563 l98 -520 1 1533 1 1532 -2560 0 -2560 0 1 -1577z m2649 607 c11
-11 20 -30 20 -42 0 -38 -111 -912 -118 -931 -7 -18 -123 857 -122 922 0 58
21 71 117 71 70 0 86 -3 103 -20z m431 -300 c67 -34 76 -48 58 -82 -15 -28
-418 -558 -425 -558 -2 0 3 17 11 38 261 627 263 632 287 632 5 0 36 -14 69
-30z m-969 -47 c16 -18 281 -644 275 -649 -2 -2 -98 122 -215 276 -150 197
-212 286 -212 304 0 21 11 33 47 56 54 34 83 38 105 13z"/>
<path d="M3419 3317 c-33 -17 -105 -94 -286 -303 -133 -153 -243 -282 -243
-285 0 -4 8 -9 18 -11 9 -3 441 -119 960 -258 518 -139 944 -251 946 -249 5 5
-118 663 -134 716 -19 63 -62 109 -124 132 -104 39 -1009 281 -1051 281 -24 0
-60 -10 -86 -23z"/>
<path d="M808 2914 c-31 -10 -57 -27 -80 -53 -27 -32 -338 -661 -338 -684 0
-4 445 -7 990 -7 545 0 990 2 990 4 0 5 -225 486 -277 593 -45 92 -93 137
-162 152 -35 7 -225 11 -564 10 -416 0 -521 -3 -559 -15z"/>
<path d="M4539 1977 c-60 -32 -99 -96 -106 -174 -14 -169 165 -285 310 -200
118 69 143 222 54 324 -64 73 -174 94 -258 50z"/>
<path d="M366 1916 c-164 -61 -181 -294 -28 -383 183 -108 396 107 288 291
-49 84 -168 126 -260 92z"/>
<path d="M2246 1915 c-114 -40 -169 -180 -115 -292 95 -196 383 -137 397 82 5
75 -13 119 -68 169 -60 54 -137 69 -214 41z"/>
</g>
</svg>
